<svg xmlns="http://www.w3.org/2000/svg" width="23" height="22" viewBox="0 0 23 22">
    <g fill="none" fill-rule="evenodd">
        <g>
            <g>
                <g>
                    <path fill="#CD9611" d="M18.421 14.31v-7.5c0-.946-.506-1.82-1.327-2.29L10.524.752C9.71.286 8.71.286 7.897.753L1.327 4.519C.507 4.99 0 5.864 0 6.81v7.501c0 .946.506 1.82 1.327 2.29l6.57 3.767c.814.467 1.813.467 2.626 0l6.571-3.766c.82-.47 1.327-1.345 1.327-2.29z" transform="translate(-97.000000, -175.000000) translate(97.940000, 175.000000) translate(1.349474, 0.000000)"/>
                    <path fill="#FFF" d="M13.69 13.9v.423c0 .583-.473 1.056-1.057 1.056H5.797c-.583 0-1.056-.473-1.056-1.056V13.9h8.948zm-8.949-.727v-.003l-.005.003L4.09 8.49c-.04-.289.161-.556.45-.595.138-.02.278.017.39.1L6.866 9.45l1.89-3.307c.144-.254.467-.342.72-.197.082.047.15.115.197.197l1.885 3.302 1.934-1.449c.089-.067.196-.103.306-.105l.083.005c.289.04.49.306.45.595l-.647 4.676.004.007H4.741z" transform="translate(-97.000000, -175.000000) translate(97.940000, 175.000000) translate(1.349474, 0.000000)"/>
                </g>
            </g>
        </g>
    </g>
</svg>
