<svg xmlns="http://www.w3.org/2000/svg" xmlns:xlink="http://www.w3.org/1999/xlink" width="59" height="59" viewBox="0 0 59 59">
    <defs>
        <path id="8wwmlbwtfa" d="M0 0L18 0 18 19 0 19z"/>
    </defs>
    <g fill="none" fill-rule="evenodd">
        <g>
            <g>
                <g transform="translate(-32.000000, -93.000000) translate(0.000000, 81.000000) translate(32.993697, 12.022357)">
                    <rect width="58" height="58" fill="#F0F0F0" rx="5"/>
                    <g transform="translate(35.000000, 6.000000)">
                        <mask id="il56y9w9vb" fill="#fff">
                            <use xlink:href="#8wwmlbwtfa"/>
                        </mask>
                        <path fill="#EB2D4B" d="M3.497 5.195c-.065-.418.214-.81.623-.876.105-.017.207-.01.303.014l3.574.811c.425.098.768.454.84.92.096.614-.314 1.19-.915 1.288-.228.037-.446-.005-.643-.094L3.938 5.776c-.226-.106-.4-.313-.441-.581m4.525-1.848c-.126.212-.175.472-.094.725.142.447.612.692 1.05.547.144-.048.267-.134.362-.242l2.089-2.476c.256-.304.378-.716.249-1.123-.188-.591-.81-.915-1.39-.723-.258.086-.467.26-.596.481l-1.67 2.81m5.999 4.087c-.237-.056-.494-.022-.705.135-.372.277-.453.809-.182 1.189.09.125.207.217.337.276l2.953 1.259c.363.154.785.145 1.123-.107.492-.366.6-1.07.241-1.573-.16-.225-.386-.374-.633-.43l-3.134-.749m-1.946 7.079c-.02-.248-.131-.486-.342-.643-.373-.276-.893-.192-1.164.188-.09.126-.14.268-.154.412l-.264 3.258c-.033.4.106.807.445 1.058.492.365 1.182.254 1.54-.25.16-.224.229-.49.206-.747l-.267-3.276m-7.205.31c.225-.096.413-.276.494-.53.143-.447-.096-.927-.534-1.073-.144-.048-.292-.053-.431-.022l-3.116.746c-.382.092-.72.352-.849.758-.189.591.128 1.227.706 1.42.26.086.528.071.76-.03l2.97-1.269M2.366 7.914c.159.188.386.315.647.315.46 0 .833-.381.832-.851 0-.156-.041-.3-.112-.426L2.07 4.158c-.204-.342-.55-.589-.97-.588C.494 3.57 0 4.074 0 4.696c0 .278.097.534.263.728l2.103 2.49m8.133-3.701l-.349 3.703c-.02.219.007.444.111.654.277.554.94.774 1.483.492.412-.214.638-.658.597-1.101l-.348-3.722c-.006-.1-.032-.202-.08-.299-.188-.376-.639-.526-1.008-.335-.236.123-.377.357-.406.608m3.482 5.888c-.008.002-3.549.807-3.556.81-.21.046-.411.143-.574.31-.43.44-.43 1.152 0 1.591.328.334.81.416 1.21.24l3.358-1.492c.092-.037.179-.094.253-.17.293-.3.293-.784 0-1.083-.188-.191-.448-.255-.691-.206m-4.406 5.204L7.725 12.1c-.108-.19-.26-.355-.466-.462-.542-.282-1.206-.062-1.482.492-.21.42-.138.915.15 1.249l2.424 2.802c.063.078.143.144.237.193.368.192.82.043 1.008-.334.12-.241.1-.514-.021-.735m-6.209-2.672l2.415-2.786c.143-.163.25-.363.286-.595.096-.613-.314-1.19-.915-1.288-.457-.074-.895.149-1.117.532l-1.862 3.219c-.053.085-.09.183-.107.29-.065.417.214.81.622.876.263.043.51-.062.678-.248" mask="url(#il56y9w9vb)"/>
                    </g>
                    <path fill="#141ED2" fill-rule="nonzero" d="M12.788 41.707c2.645 0 5.796-1.472 5.796-5.06 0-3.151-2.254-3.887-5.083-4.991-1.886-.736-2.76-1.15-2.76-2.162.023-1.035.851-1.633 1.978-1.633 1.012 0 2.208.506 3.565 1.61l1.886-2.438c-1.633-1.334-3.496-2.07-5.52-2.07-2.92.023-5.244 2.047-5.244 4.669 0 3.105 2.461 4.232 4.945 5.083 1.978.69 2.83 1.127 2.83 2.323 0 1.012-.76 1.725-2.324 1.725-1.288 0-2.852-.667-4.07-2.047L6.83 39.108c1.725 1.771 3.864 2.599 5.957 2.599zm15.108-.046c2.875 0 5.083-1.334 6.486-3.082l-2.37-2.047c-.988 1.219-2.414 2.07-4.116 2.07-2.921 0-4.945-2.185-4.945-5.221 0-3.266 2.116-5.336 4.899-5.336 1.679 0 3.059.782 4.117 2.07l2.392-2.001c-1.748-2.139-4.163-3.151-6.51-3.151-5.29 0-8.28 3.749-8.28 8.418 0 5.382 3.773 8.28 8.327 8.28z"/>
                    <path fill="#141ED2" d="M31.427 50.94v-.893l.468-.483.857 1.376h1.042l-1.24-1.967 1.211-1.315h-1.09l-1.234 1.376h-.014V46h-.92v4.94h.92zm-3.97 0v-1.645c0-.59.312-.899.78-.899.432 0 .665.195.665.819v1.725h.929v-1.947c0-1.006-.518-1.382-1.254-1.382-.433 0-.83.16-1.106.47h-.014v-.423h-.928v3.282h.928zm-3.389-.732c-.524 0-.886-.37-.886-.893 0-.563.383-.919.886-.919.496 0 .879.39.879.92 0 .536-.404.892-.879.892zm-.177.792c.454 0 .8-.161 1.041-.456l.015.006v.39h.885v-3.282h-.928v.376l-.014.006c-.248-.282-.616-.43-1.02-.43-.928 0-1.63.705-1.63 1.699 0 1.013.702 1.691 1.651 1.691zm-3.807-.892h-.935v-1.222h.836c.574 0 .864.242.864.617 0 .403-.29.605-.765.605zM19.9 48.12h-.751v-1.114h.708c.546 0 .765.221.765.557 0 .389-.29.557-.722.557zm.326 2.819c1.119 0 1.658-.557 1.658-1.316 0-.63-.369-1.06-1.014-1.208v-.013c.546-.202.759-.638.759-1.067 0-.759-.581-1.161-1.651-1.161h-1.814v4.765h2.062zm-4.502-.832h-.935v-1.222h.836c.574 0 .864.242.864.617 0 .403-.29.605-.765.605zm-.184-1.987h-.751v-1.114h.708c.546 0 .766.221.766.557 0 .389-.29.557-.723.557zm.326 2.819c1.12 0 1.658-.557 1.658-1.316 0-.63-.369-1.06-1.013-1.208v-.013c.545-.202.758-.638.758-1.067 0-.759-.581-1.161-1.651-1.161h-1.814v4.765h2.062zm-7.08 0v-2.953H8.8l1.218 2.053h.645l1.226-2.047h.014v2.947h.992v-4.765h-.999l-1.545 2.71h-.014l-1.544-2.71h-1v4.765h.992z"/>
                </g>
            </g>
        </g>
    </g>
</svg>
