<svg xmlns="http://www.w3.org/2000/svg" width="155" height="72" viewBox="0 0 155 72">
    <defs>
        <linearGradient id="ft12v1h2ja" x1="21.279%" x2="47.294%" y1="30.282%" y2="51.147%">
            <stop offset="0%" stop-color="#0B175D"/>
            <stop offset="100%" stop-color="#1431C4"/>
        </linearGradient>
        <linearGradient id="ym23kp7yub" x1="44.284%" x2="38.491%" y1="102.721%" y2="84.91%">
            <stop offset="0%" stop-color="#0C185E"/>
            <stop offset="100%" stop-color="#1432C5"/>
        </linearGradient>
        <linearGradient id="9wzzzjy05c" x1="112.124%" x2="84.671%" y1="35.97%" y2="43.83%">
            <stop offset="0%" stop-color="#0C185E"/>
            <stop offset="100%" stop-color="#1432C5"/>
        </linearGradient>
        <linearGradient id="2zd89rto5d" x1="128.315%" x2="60.419%" y1="280.071%" y2="86.218%">
            <stop offset="0%" stop-color="#0B175D"/>
            <stop offset="100%" stop-color="#1431C4"/>
        </linearGradient>
    </defs>
    <g fill="none" fill-rule="evenodd">
        <g>
            <g>
                <path fill="#1431C4" fill-rule="nonzero" d="M41.35 53.547c5.367 0 9.513-2.996 9.513-7.421 0-5.61-6.725-7.283-8.85-7.736-2.195-.452-4.39-1.184-4.39-2.752 0-1.255 1.533-2.16 3.693-2.16 1.421 0 3.285.669 5.591 2.006.244.142.556.063.703-.178l2.243-3.675c-1.777-1.707-4.809-2.962-8.502-2.962-5.54 0-9.269 2.857-9.269 7.178 0 4.25 3.59 6.516 8.398 7.665 2.543.628 4.843 1.185 4.843 2.858 0 1.428-1.847 2.369-4.007 2.369-1.621 0-3.943-.934-6.966-2.803-.236-.146-.545-.08-.701.15l-2.507 3.698c2.508 2.265 6.48 3.763 10.209 3.763zM59.225 52.61V37.695l5.917 11.119c.09.169.266.274.458.274h2.443c.192 0 .368-.105.458-.274l5.916-11.12v14.918c0 .286.232.518.519.518h4.882V29.087h-6.275c-.191 0-.367.105-.457.274l-6.23 11.608-6.195-11.607c-.09-.17-.266-.275-.457-.275h-6.38V53.13h4.883c.286 0 .518-.232.518-.518zM125.498 29.087c4.774 0 8.362 3.45 8.362 8.05 0 3.379-1.986 6.027-4.947 7.177l5.61 8.815h-6.298c-.114 0-.22-.06-.278-.157l-4.853-8.066h-2.614v7.705c0 .286-.232.518-.518.518h-4.882V29.087zm-.105 5.087h-4.913v6.028h4.913c1.673 0 2.927-1.289 2.927-2.996 0-1.742-1.254-3.032-2.927-3.032zM147.31 53.13V34.173h6.172c.286 0 .518-.232.518-.518v-4.569h-18.78v4.569c0 .286.231.518.518.518h6.171V53.13h5.401z" transform="translate(-65.000000, -50.000000) translate(65.763637, 50.592736)"/>
                <path fill="#0C185E" fill-rule="nonzero" d="M47.341 71.1c1.933 0 3.579-.921 4.545-2.34l-1.193-.74c-.71 1.072-1.917 1.751-3.352 1.751-2.295 0-4.03-1.751-4.03-4.061s1.735-4.062 4.03-4.062c1.435 0 2.643.68 3.352 1.752l1.193-.74c-.966-1.42-2.612-2.34-4.545-2.34-3.11 0-5.45 2.325-5.45 5.39 0 3.065 2.34 5.39 5.45 5.39zm12.361-.181v-4.59H65.5v4.59h1.39V60.5H65.5v4.53h-5.798V60.5h-1.389v10.418h1.39zm14.867 0l1.012-2.522h5.103l1.012 2.522h1.525L78.978 60.5h-1.646L73.09 70.919h1.48zm5.602-3.805h-4.077l2.039-5.118 2.038 5.118zm10.64 3.805V62.81l5.888 8.108h1.42V60.5h-1.375v8.138L90.856 60.5h-1.434v10.418h1.389zm15.818 0V62.81l5.888 8.108h1.42V60.5h-1.374v8.138l-5.889-8.138h-1.434v10.418h1.389zm21.33 0V69.62h-5.512V66.33h4.938V65.03h-4.938V61.8h5.436v-1.3h-6.825V70.92h6.9zm13.07 0V69.62h-5.058V60.5h-1.39V70.92h6.448z" transform="translate(-65.000000, -50.000000) translate(65.763637, 50.592736)"/>
                <path fill="#EC1A3B" d="M21.572 28.122c.554-.758 1.623-.925 2.386-.374.433.312.676.789.702 1.281l.004.049.005.05.003.047.007.075.002.024c.002.017.003.033.003.05l.005.048.004.05.004.049.005.049.003.048.004.05.005.05.005.048.003.049.004.05.004.049.008.097.004.05.004.049.005.05c0 .015.004.031.004.048l.004.05c0 .016.003.031.004.049l.002.024.002.024.004.049.004.05.004.05.005.048c.002.016.003.032.003.049l.005.05.004.047.003.05c.002.016.005.032.005.05 0 .015.002.031.004.047.001.017.004.034.004.05l.005.049c.001.016.003.032.003.049l.005.048.003.05.005.05c0 .015.003.032.004.048 0 .016.003.033.004.049.001.017.004.032.004.05l.005.049.004.049.003.048.005.05c0 .015.003.032.004.05l.004.048.004.049c.001.016.004.033.004.05l.004.049.005.049.003.048.005.05c0 .017.003.032.004.049 0 .017.002.033.003.049.002.016.004.032.004.048.002.017.004.033.004.05.002.016.005.033.005.05l.005.048.002.05c.002.015.005.032.005.049l.005.047.006.075.004.049.003.024c0 .017.003.033.003.049l.005.05.002.049.005.048.004.05.005.05.003.048.005.048c0 .017.003.033.003.05l.005.05.003.048.005.049.004.05c.002.015.004.032.004.049l.005.049c0 .016.003.032.004.048s.003.033.003.05l.005.05c.002.015.003.031.003.047l.006.05c0 .016.003.032.003.049l.003.024.001.024.004.05.005.05c.001.015.003.032.003.049.002.015.004.032.004.05.002.014.004.032.004.048l.005.049.004.049.004.048.004.05.004.049.005.049.003.048.005.05c0 .017.003.033.004.05l.004.048.004.049.004.05.004.049.005.048.006.074.002.025c.002.017.003.032.003.05l.005.047.004.05.002.024.001.026.005.048.005.049c.001.016.003.032.003.05l.004.049c.002.015.004.032.004.047l.005.05c0 .016.003.033.004.049l.004.049c0 .017.003.034.004.05l.005.049.003.048c.001.016.004.033.004.05l.005.048c0 .018.003.033.004.05 0 .016.003.032.004.049l.004.049c0 .017.003.033.003.049.041.513-.095 1.043-.422 1.49-.734 1.002-2.149 1.224-3.159.497-.694-.5-1.017-1.32-.913-2.11l.004-.049c.003-.015.003-.032.005-.048l.001-.024.003-.024.004-.05.006-.072.002-.025.004-.048.004-.049.004-.049c.003-.016.003-.032.004-.048.002-.018.002-.035.005-.05l.003-.048c.002-.017.002-.034.005-.05l.004-.049.003-.048c.003-.017.003-.032.005-.05.001-.015.001-.032.004-.048l.004-.048c.002-.017.002-.034.005-.05l.001-.024.002-.024.004-.05.008-.096.004-.05.004-.047.005-.05c.001-.015.001-.032.005-.047l.003-.05c.001-.015.001-.032.004-.05.002-.015.002-.032.005-.048 0-.016 0-.032.003-.049l.004-.048.004-.05.005-.048c.001-.016.001-.032.004-.049.002-.016.002-.032.003-.049l.002-.024.003-.024.004-.05.004-.048.003-.049.003-.024.002-.024c.001-.016.001-.032.004-.05.002-.015.002-.032.003-.048.004-.017.004-.032.005-.049l.003-.048.006-.05c.001-.015.001-.032.004-.049l.001-.024.002-.024.004-.049.004-.048c.003-.016.003-.033.004-.05.004-.015.004-.032.005-.048.002-.016.002-.033.003-.049.003-.016.003-.032.005-.048l.002-.025.003-.024.003-.049.004-.049.004-.048c.003-.017.003-.033.004-.05.003-.015.003-.032.005-.05.001-.015.001-.032.004-.048 0-.016.002-.032.004-.049l.004-.048.004-.05c.001-.015.001-.031.004-.047l.004-.05c.001-.016.001-.032.004-.048l.004-.05c.002-.015.002-.032.005-.047l.003-.05c.003-.015.003-.032.005-.048l.004-.05.003-.047.005-.05.004-.047.004-.05.002-.024.003-.025c0-.016.001-.033.003-.048s.002-.033.005-.05c.001-.015.001-.032.004-.048l.003-.05.004-.048.004-.049c.002-.016.002-.032.005-.048l.001-.025.002-.024c.003-.017.003-.033.005-.049 0-.016 0-.033.004-.049l.002-.024.002-.024.004-.05.004-.048.004-.049c.001-.017.001-.032.005-.05l.003-.047c.003-.017.003-.032.005-.05 0-.015 0-.032.003-.047.003-.018.003-.034.005-.05.001-.016.001-.032.004-.048.001-.017.001-.033.004-.05l.004-.048c.001-.016.001-.033.004-.049l.003-.048c.004-.016.004-.033.005-.05l.003-.048c.003-.016.003-.033.006-.049.001-.017.001-.032.004-.049l.003-.048c.002-.017.002-.033.005-.05.001-.015.001-.032.004-.05.002-.015.002-.032.003-.047l.003-.025.002-.025c.002-.015.002-.032.003-.048l.005-.049c.002-.016.002-.032.005-.048l.001-.025.001-.024c.003-.017.003-.033.005-.048.002-.017.002-.033.005-.05l.003-.048.004-.048.004-.05.005-.048.004-.05.004-.048c0-.016.001-.032.004-.048.002-.017.002-.033.005-.05l.003-.05.004-.047.004-.05c.001-.016.001-.032.004-.048l.004-.049c.002-.016.002-.033.005-.049l.003-.048c.002-.017.002-.033.005-.05l.003-.048c.03-.288.133-.57.317-.823zm-9.773-3.894c.565-1.103 1.925-1.542 3.036-.98.418.213.742.538.953.92l.047.08.025.04c.007.014.016.027.024.04l.024.04.024.042.024.04c.007.013.015.027.024.04.007.015.016.027.024.041l.023.04.037.06.011.022c.008.012.018.025.025.039.007.014.016.028.024.041.007.014.016.027.024.04.006.014.016.027.024.04l.023.04.024.042.012.02.012.02c.008.014.018.027.024.04l.024.042.06.1.013.02.048.08.023.041.025.04.023.04.024.042.025.04.023.04c.007.014.017.027.025.04l.011.02.012.02.025.04c.006.016.016.028.022.04l.026.042c.007.015.016.027.024.041l.035.06.012.02.024.04c.008.014.017.027.024.041l.023.04.026.042c.007.013.016.026.022.04l.025.04.023.04c.01.014.018.027.025.04l.023.04.026.041.023.04c.007.014.017.028.023.042.009.012.017.026.025.04l.023.04.025.04c.007.015.016.027.023.04.009.015.017.028.026.04.006.015.015.028.023.041l.024.042.024.039.024.041.06.1.01.02c.009.015.019.027.025.042.009.013.017.026.024.04l.026.041c.006.013.015.026.023.04l.06.1.01.02.025.04.024.042c.008.013.018.027.024.04l.037.06.011.021.049.08c.007.015.016.028.023.041l.024.04.024.04.025.041.035.06.012.021.025.041.023.04c.007.014.017.026.025.04l.023.042.025.039c.006.013.016.027.023.041l.024.04c.009.013.017.027.024.04l.024.04.024.04.012.021.012.02.024.041.024.042c.008.011.016.025.024.04.008.012.017.025.023.04.01.013.017.026.025.04l.024.04.037.06.01.02c.01.014.017.028.026.042l.035.06.01.02c.01.013.018.027.026.04l.023.04c.008.015.018.027.025.041.007.014.016.027.024.04l.025.04c.006.015.015.029.023.04l.024.042.012.02.012.02.024.04c.008.015.017.027.024.041.007.014.017.026.024.04.008.014.016.026.023.041.008.013.017.027.024.041.01.012.017.026.025.04.007.014.016.026.024.04l.024.04.024.04c.007.015.016.027.024.041l.023.04.025.041.036.06.011.022.037.06.012.02.024.04.023.04.025.04c.008.015.016.029.024.04l.023.042.013.02.012.02.023.041c.008.014.017.026.024.04l.025.04.023.04.025.042.023.039.025.041.023.04.024.04c.008.015.017.028.025.04.007.015.015.028.023.042.007.013.017.026.024.04l.024.04.025.042c.007.012.016.025.023.04l.025.04.011.02.011.02c.01.014.018.026.025.04l.024.04.025.041.023.04.025.04c.255.434.29.983.043 1.464-.384.751-1.309 1.05-2.064.667-.193-.098-.356-.23-.485-.386-.012-.011-.022-.022-.032-.035-.01-.012-.022-.024-.03-.035l-.033-.036-.03-.035c-.012-.011-.022-.024-.033-.036-.01-.01-.02-.022-.03-.036l-.033-.033-.03-.036c-.01-.013-.022-.023-.033-.036l-.03-.035-.032-.035c-.011-.011-.021-.024-.031-.036l-.031-.035-.033-.036-.03-.035-.016-.017-.016-.017-.031-.037c-.011-.01-.022-.023-.032-.035l-.031-.034c-.01-.013-.022-.024-.032-.036-.012-.012-.02-.023-.031-.036l-.017-.017-.015-.018-.032-.036-.03-.033c-.01-.014-.022-.026-.033-.037l-.03-.036-.032-.034c-.01-.013-.022-.024-.03-.036-.012-.012-.023-.023-.032-.035l-.032-.035c-.011-.012-.02-.024-.032-.035l-.03-.036-.032-.035-.033-.036-.03-.035-.031-.035-.032-.035-.031-.035c-.011-.013-.022-.024-.031-.036l-.048-.053-.016-.018-.032-.035-.03-.035-.032-.035-.032-.036-.03-.035c-.01-.013-.022-.023-.032-.036l-.016-.017-.016-.018-.03-.036-.032-.034-.033-.036-.03-.035c-.01-.013-.022-.023-.032-.036l-.031-.035-.032-.035-.031-.036c-.01-.011-.022-.022-.032-.035l-.031-.035-.031-.035-.017-.018-.015-.018-.032-.036-.031-.035-.032-.034c-.01-.013-.021-.023-.03-.036L15.029 30l-.031-.036c-.01-.012-.022-.023-.03-.034l-.034-.036-.03-.036-.032-.035c-.01-.012-.022-.023-.031-.035l-.033-.036-.03-.035-.032-.036c-.01-.01-.022-.022-.031-.034-.011-.013-.022-.024-.031-.036l-.032-.035-.031-.035-.032-.036-.031-.034c-.01-.013-.022-.024-.032-.036-.01-.012-.022-.023-.031-.036-.01-.01-.021-.023-.03-.035l-.033-.035-.032-.036c-.01-.01-.021-.023-.03-.035l-.032-.034-.03-.036c-.013-.012-.022-.024-.034-.036l-.03-.035c-.01-.01-.022-.023-.032-.036-.011-.011-.022-.022-.03-.035l-.033-.034-.031-.036-.032-.035-.031-.036c-.011-.011-.022-.023-.031-.035l-.032-.035-.032-.036-.031-.035-.031-.035-.016-.018-.016-.018-.03-.035c-.011-.011-.022-.023-.032-.036-.011-.011-.022-.023-.032-.036l-.032-.033-.03-.036c-.012-.013-.023-.023-.032-.036l-.033-.035-.03-.036-.032-.035c-.01-.01-.02-.024-.03-.035-.012-.012-.023-.022-.032-.036-.01-.01-.022-.022-.032-.035l-.031-.034c-.01-.014-.021-.024-.032-.036l-.031-.036c-.01-.01-.022-.023-.032-.036l-.031-.034-.032-.035-.015-.018-.016-.018-.032-.035-.03-.034-.031-.037-.032-.035-.033-.035-.03-.036-.032-.035-.03-.035c-.012-.012-.023-.023-.033-.036-.01-.011-.022-.023-.03-.035l-.032-.035-.032-.035-.03-.036c-.012-.011-.023-.023-.033-.035l-.031-.036c-.01-.011-.02-.023-.032-.034l-.03-.036-.017-.018-.015-.017c-.01-.012-.022-.023-.031-.036l-.032-.035-.032-.035-.031-.036-.031-.034-.032-.036-.032-.035-.031-.036-.031-.036-.032-.034-.031-.035c-.01-.013-.022-.024-.032-.036l-.031-.035c-.01-.012-.021-.023-.03-.036-.013-.012-.022-.023-.033-.035l-.032-.035-.03-.036-.033-.035-.03-.035c-.586-.67-.74-1.65-.308-2.488zm-2.804 2.029c.284-.061.585-.053.88.044.893.29 1.38 1.256 1.091 2.152-.165.51-.545.889-1.007 1.066l-.044.02-.045.019-.044.02-.045.017-.045.02-.045.018-.045.02-.044.018-.046.02c-.015.005-.029.013-.045.019l-.045.018-.044.02-.045.018-.045.018-.043.02-.046.02-.046.018-.044.018-.045.02-.044.018-.046.02-.044.018c-.016.006-.03.012-.045.02-.015.005-.03.012-.045.019l-.045.018-.045.02-.044.018-.046.018-.043.02c-.016.006-.031.012-.046.02l-.046.018-.044.018-.044.02-.045.018-.045.02-.045.018c-.016.006-.03.012-.045.02l-.045.017-.045.02c-.014.006-.03.013-.045.017l-.044.02-.046.02-.043.018-.046.02c-.015.006-.029.013-.044.018l-.046.019c-.014.006-.028.013-.044.018l-.045.02-.046.02-.044.018-.045.018-.022.01-.023.01-.045.019-.021.01-.023.007c-.015.007-.03.015-.045.02l-.045.02-.044.018-.045.02-.046.018c-.014.006-.03.012-.044.02l-.044.017-.045.02c-.016.006-.03.013-.046.017-.015.007-.03.015-.044.02l-.045.02-.045.018c-.016.006-.03.013-.045.02l-.045.018-.045.019-.045.018-.044.02-.045.02c-.015.005-.03.012-.044.018l-.046.018-.044.02-.023.009-.022.01-.045.017c-.016.007-.03.015-.045.02l-.045.02-.045.018-.044.02-.046.018c-.015.006-.03.012-.044.02l-.046.017-.043.02-.046.018-.044.02c-.016.006-.031.012-.045.019l-.045.018c-.016.006-.03.013-.045.02l-.045.018-.045.019-.045.018-.045.02-.044.02-.046.018-.045.019-.045.018-.043.02c-.016.005-.03.013-.046.018l-.044.019-.045.02-.045.018-.044.019-.046.019-.045.018c-.015.007-.03.014-.045.019l-.044.02-.045.018-.045.02-.045.018-.046.02-.043.018c-.016.006-.03.014-.046.019l-.044.019-.045.018-.044.02-.045.019-.045.019-.045.018c-.015.007-.03.014-.046.019l-.044.019c-.016.006-.03.014-.045.019l-.045.02-.045.018-.045.02-.043.018-.046.019-.044.018-.023.01-.023.009-.044.02-.045.018-.045.02-.045.018-.045.02c-.477.197-1.022.233-1.55.06-1.18-.385-1.826-1.66-1.443-2.848.264-.816.946-1.378 1.73-1.525.015-.003.03-.008.046-.01l.047-.012.048-.01c.015-.005.03-.01.047-.013l.047-.011c.016-.004.032-.008.047-.01.015-.004.03-.009.046-.012l.047-.01.048-.012c.015-.003.031-.01.046-.012l.048-.01c.016-.004.031-.008.047-.01.016-.005.031-.01.047-.013l.047-.011.047-.01c.016-.004.031-.01.047-.012l.048-.011.047-.011.023-.007.024-.005.047-.011c.015-.003.03-.008.046-.01l.047-.012.048-.012.046-.01.048-.012.047-.011c.016-.003.03-.008.046-.01.016-.004.031-.009.048-.012l.047-.011.023-.006.024-.006.047-.011.047-.01c.015-.004.032-.009.047-.011.016-.004.031-.009.047-.012l.047-.01c.015-.005.03-.01.046-.012l.048-.012c.016-.002.031-.008.047-.01l.047-.011.047-.012c.016-.003.031-.008.047-.01l.047-.012c.016-.003.032-.01.047-.01l.048-.012c.016-.003.03-.008.047-.012.015-.003.031-.008.047-.01l.047-.012.047-.011.047-.01.047-.013c.016-.002.032-.007.047-.011l.047-.01c.016-.004.03-.009.046-.012.017-.003.033-.008.048-.01l.046-.012.049-.011.046-.012.024-.005.023-.005.048-.012.046-.01.048-.012c.016-.003.03-.008.046-.012.016-.002.032-.007.047-.01.016-.004.032-.009.048-.01.016-.004.032-.01.047-.012l.046-.012.047-.01c.016-.004.033-.01.048-.012l.046-.01c.017-.004.031-.01.048-.012.016-.003.031-.008.047-.01l.047-.013.047-.011c.016-.003.03-.008.047-.01l.047-.012.047-.01c.016-.004.032-.01.048-.012l.047-.012.047-.011c.015-.003.03-.008.046-.01l.046-.012.049-.01.046-.012.048-.012c.016-.003.031-.008.047-.01l.046-.012.047-.01c.017-.004.031-.009.048-.012l.047-.011c.016-.003.031-.008.047-.01.016-.005.031-.01.046-.011.016-.005.032-.01.048-.013.015-.002.03-.007.047-.011.016-.003.031-.008.047-.01.015-.004.031-.009.048-.012l.023-.005.024-.005.046-.011c.016-.003.03-.009.046-.012.017-.003.031-.008.048-.012l.023-.005.024-.006c.016-.002.031-.007.047-.01l.024-.006.023-.005.048-.012.047-.011c.015-.003.03-.009.046-.012l.047-.01c.016-.004.032-.009.048-.011.015-.004.031-.009.047-.012l.048-.01c.014-.004.03-.01.046-.012.016-.003.031-.009.047-.012l.023-.005.023-.004c.016-.005.03-.01.048-.013l.047-.01.047-.011c.016-.004.032-.01.047-.012.016-.002.031-.009.047-.01l.047-.011c.016-.005.03-.01.047-.013.016-.002.031-.007.047-.01l.048-.011c.015-.004.03-.009.046-.012.016-.002.031-.007.047-.01.016-.005.032-.008.048-.011.015-.004.031-.01.046-.012l.047-.012c.016-.003.03-.008.048-.01l.046-.012.024-.005.023-.005.048-.011.023-.006.023-.006c.016-.003.031-.009.048-.012.016-.003.03-.008.047-.01l.047-.012.047-.01zm19.583-6.13c.492-.11 1.028.029 1.41.413.598.6.598 1.571 0 2.172-.152.152-.329.266-.517.341l-.043.018-.044.02c-.016.006-.03.012-.045.02l-.044.018-.043.019c-.016.006-.03.014-.045.02l-.044.019-.043.019-.045.018-.043.02-.044.02-.045.018-.044.019-.042.02-.046.018-.043.02-.044.02-.044.017c-.015.007-.029.015-.044.02l-.044.02-.044.018-.044.019c-.014.006-.029.014-.043.019l-.044.02-.044.019c-.015.006-.03.014-.045.018l-.044.02-.043.02-.044.018-.066.03-.022.009-.044.018-.044.02-.044.019-.044.019-.043.02c-.015.005-.03.013-.045.02-.015.005-.029.011-.044.018-.015.006-.029.013-.044.018l-.044.02-.044.019-.087.039c-.015.005-.03.012-.045.019-.014.005-.028.012-.043.019l-.022.01-.022.008-.044.02-.044.02-.045.018-.044.02-.043.02-.044.017-.044.02-.044.02-.043.018c-.016.006-.03.012-.045.02l-.044.019c-.014.006-.03.012-.043.019l-.044.019-.045.019-.044.02c-.015.005-.029.012-.043.018l-.045.02-.044.019c-.015.006-.028.013-.043.018l-.044.02-.022.009-.022.01-.044.02-.044.018-.043.02-.045.019-.042.018c-.016.007-.032.015-.046.019l-.043.02-.044.019-.045.019-.043.02c-.016.005-.03.012-.043.018l-.045.02-.044.018-.043.02-.045.019-.043.02-.045.018-.044.02c-.014.006-.028.013-.044.018-.014.006-.03.014-.045.019-.014.008-.028.014-.043.02l-.044.02c-.014.005-.028.012-.045.02-.014.004-.027.011-.043.017l-.043.02-.044.018-.045.02-.043.019c-.014.006-.03.012-.044.02l-.044.018-.044.019-.044.02c-.015.005-.03.012-.043.019l-.044.02-.045.018-.043.02-.023.009-.021.01-.044.019-.044.018-.044.02-.044.019-.044.019-.044.02-.044.019-.044.018-.044.019-.044.02-.044.019c-.014.006-.029.013-.044.018-.015.007-.03.015-.044.02l-.043.02-.045.018-.043.019-.044.02-.045.019-.043.019-.044.019-.045.02-.021.01-.066.027-.044.02-.044.018-.044.02-.045.02-.043.018c-.015.007-.029.014-.044.019l-.044.019-.044.02-.044.019c-.015.006-.03.014-.044.018l-.044.02-.088.04-.043.018-.045.019-.043.018-.045.02-.044.019-.043.019-.044.02c-.015.005-.029.013-.044.02-.014.005-.03.011-.044.018l-.043.019c-.016.006-.03.013-.045.02l-.044.018-.043.02-.023.01-.023.01c-.013.004-.027.011-.043.018-.014.005-.03.012-.043.019-.82.348-1.801.188-2.47-.481-.879-.882-.879-2.31 0-3.192.332-.333.742-.54 1.17-.621l.048-.01.046-.011.07-.016.023-.005c.016-.003.032-.008.047-.01l.046-.01c.016-.004.03-.008.047-.01.016-.004.031-.009.047-.012l.046-.01c.016-.002.031-.007.047-.01l.045-.011.048-.01.046-.01.047-.011.046-.01.047-.01c.015-.004.03-.008.046-.01l.047-.01.047-.012.046-.01.047-.01.023-.005.023-.005.07-.016.023-.005.047-.011c.016-.003.03-.008.046-.01l.047-.01.046-.01.047-.011.047-.01.023-.006.023-.005.046-.01c.016-.004.03-.008.046-.01l.024-.006.024-.005.046-.01c.016-.003.03-.008.047-.01l.046-.011.046-.01.046-.011.047-.01.024-.006.024-.004c.014-.003.03-.009.046-.011l.046-.01c.015-.003.031-.008.046-.01.016-.003.032-.008.047-.01.017-.005.031-.009.047-.012l.046-.01c.017-.002.031-.007.048-.01l.044-.01c.017-.004.031-.009.048-.012l.047-.01.046-.01c.016-.003.03-.008.047-.01l.045-.01.024-.006.024-.005c.016-.003.03-.008.047-.01l.046-.01.045-.011.047-.011.047-.01.048-.01.045-.011.046-.01c.017-.003.031-.008.048-.01l.069-.016.023-.005.047-.01.07-.016.023-.005c.015-.003.031-.008.046-.01l.047-.011.047-.01.046-.011.047-.01.046-.01c.015-.003.031-.008.046-.01l.048-.011.069-.016.024-.005.046-.01.046-.01.047-.011.07-.016.024-.005.045-.01.024-.005.023-.005.046-.01c.016-.004.031-.009.047-.012l.093-.02.047-.01c.015-.004.03-.009.046-.01l.047-.011.046-.01.047-.01c.016-.003.03-.008.046-.01.016-.004.031-.009.047-.011l.047-.01c.015-.005.03-.008.046-.012.016-.002.031-.007.047-.01l.046-.01.047-.01c.015-.004.03-.008.046-.01l.024-.006.023-.005.046-.01.024-.006.023-.004.046-.01c.016-.004.03-.009.047-.012l.047-.01.023-.005.023-.005c.016-.003.031-.008.047-.01.015-.004.03-.009.046-.01.015-.005.03-.008.047-.011l.023-.005.023-.006.047-.01c.016-.004.03-.008.046-.01l.024-.006.022-.005.047-.01.047-.011c.016-.002.031-.007.047-.01.015-.004.03-.008.046-.01l.047-.011.023-.005.023-.005c.015-.003.032-.008.046-.01l.047-.012.024-.005.023-.004.046-.011.047-.01.046-.01c.016-.004.032-.009.047-.011l.047-.01c.015-.004.03-.008.046-.01l.047-.012.023-.004.023-.005.047-.011.07-.015.023-.005.046-.01.046-.012.048-.01.023-.005.023-.005.116-.026.023-.005.046-.01c.016-.004.032-.008.048-.01l.047-.012.115-.025.023-.005.047-.01.047-.01.046-.012.047-.01.045-.01c.017-.003.032-.008.048-.01zM8.165 16.96c.46-.76 1.35-1.208 2.286-1.06 1.232.193 2.072 1.342 1.876 2.564-.072.463-.284.87-.584 1.186-.011.012-.02.024-.033.035-.009.012-.02.023-.031.035l-.03.035-.031.035-.031.036-.032.035c-.011.011-.02.023-.031.036l-.031.034-.016.018-.017.017-.03.036c-.01.012-.02.023-.032.034l-.03.036-.031.035c-.011.01-.022.023-.033.035l-.031.035-.031.035c-.01.013-.02.024-.031.035l-.032.036-.015.017-.016.018-.03.035c-.012.01-.022.023-.032.036l-.031.033c-.01.013-.021.025-.032.036l-.031.036-.03.033-.033.036c-.01.011-.02.025-.031.036-.01.011-.02.025-.031.035l-.031.035-.032.036-.03.034-.016.018-.016.018c-.01.01-.021.023-.03.035l-.034.035-.031.035c-.01.01-.02.024-.03.036l-.032.034-.03.036-.032.035-.031.034c-.012.012-.02.024-.032.035l-.03.036-.032.036c-.01.01-.02.023-.032.034l-.031.035c-.01.012-.021.023-.03.036l-.033.034-.031.035c-.01.012-.02.025-.031.036l-.031.035-.032.036-.03.034-.032.036c-.01.01-.02.023-.03.035l-.032.034c-.01.013-.021.024-.032.036l-.031.035-.031.034-.031.036-.032.035-.031.036-.031.035c-.01.011-.02.024-.032.034l-.03.036-.032.035c-.01.011-.022.024-.03.035-.013.012-.022.023-.032.035l-.031.036c-.012.01-.021.023-.033.035l-.031.034c-.01.013-.02.025-.031.036-.01.011-.02.025-.031.036-.011.01-.02.022-.031.034l-.032.035-.03.036-.032.035-.032.035-.031.035c-.01.013-.021.023-.031.035-.01.013-.021.024-.031.035l-.032.035-.015.018-.016.017c-.01.011-.02.025-.031.036-.012.011-.02.023-.032.036l-.03.033-.032.036-.03.036-.032.034-.033.036c-.01.01-.02.022-.03.035l-.031.035-.032.035-.03.035-.033.035-.03.036-.016.017-.016.017c-.01.013-.02.025-.031.036-.01.01-.02.024-.031.036-.01.01-.022.023-.03.035-.012.01-.023.022-.032.034-.012.012-.021.024-.031.035l-.033.036-.03.034-.016.018-.016.017c-.01.012-.02.026-.031.036l-.031.035-.032.035-.03.035-.032.035-.031.035c-.011.012-.02.025-.032.036l-.031.035-.032.035-.031.036-.031.034-.031.036c-.01.011-.02.023-.032.034l-.03.035c-.012.013-.02.025-.032.036-.01.011-.02.025-.03.035-.012.011-.022.024-.032.035l-.016.018-.017.018-.03.034c-.01.013-.021.023-.031.035l-.032.036-.03.035-.033.035c-.01.01-.02.024-.03.036-.011.01-.02.023-.032.034l-.032.035-.03.036-.016.017-.015.017-.031.036-.031.035-.032.036-.032.033c-.01.013-.02.026-.031.037l-.031.035-.016.017-.016.017c-.01.012-.02.025-.031.035l-.03.036-.032.035-.031.036c-.011.011-.02.023-.032.034l-.015.018-.016.018-.032.035-.031.034-.031.036c-.01.011-.02.024-.032.035l-.03.035c-.01.012-.02.024-.032.035l-.031.036-.03.035-.032.035c-.01.011-.021.024-.033.035-.01.012-.02.025-.03.035-.01.011-.02.024-.032.035l-.03.036c-.337.374-.852.579-1.388.494-.837-.132-1.409-.913-1.276-1.744.034-.213.11-.408.219-.578l.024-.041.024-.04.025-.041.023-.04c.009-.015.016-.029.025-.041l.024-.04.025-.042.023-.04.024-.041c.009-.013.016-.027.024-.04l.024-.04c.01-.014.015-.028.024-.042l.024-.04.012-.021.013-.021.023-.039c.01-.014.017-.027.025-.041l.024-.04.023-.042.025-.04c.008-.014.015-.027.024-.04l.024-.042.012-.02.012-.02.025-.04c.008-.014.015-.028.024-.04.008-.014.015-.03.023-.042l.012-.02.013-.02.023-.041c.009-.013.016-.028.026-.04l.023-.041.024-.04.024-.041.025-.04.023-.042.025-.04.024-.04.012-.02.013-.02c.007-.015.014-.029.023-.041l.011-.02.013-.021.024-.04c.008-.014.015-.028.024-.041.009-.014.015-.028.024-.04l.023-.041c.01-.014.017-.028.026-.042l.011-.02.012-.02c.01-.014.016-.027.025-.04l.023-.042.025-.04c.008-.014.016-.028.025-.04l.023-.042.024-.04.012-.02.012-.02.024-.04.025-.042.023-.04.025-.04.023-.04c.008-.015.016-.029.026-.043l.023-.04c.007-.013.015-.028.024-.04l.024-.04c.008-.014.015-.028.025-.042l.023-.04c.008-.013.016-.028.025-.04l.012-.02.012-.021c.008-.013.015-.027.024-.04.008-.013.015-.028.024-.041.008-.014.015-.028.024-.04l.024-.041.023-.04c.01-.014.016-.028.025-.042l.024-.04.024-.04.024-.042c.01-.012.016-.027.025-.04l.023-.04.025-.04.023-.042c.01-.014.016-.027.026-.04.007-.015.014-.028.023-.04.007-.014.016-.029.024-.04l.025-.043.024-.04.023-.04.025-.04.024-.042.023-.04.025-.04.024-.042.024-.04.025-.04.023-.04.025-.042.036-.06.013-.02c.007-.015.014-.028.023-.04.007-.015.015-.029.024-.042l.024-.04.023-.041c.01-.014.017-.028.025-.04l.023-.042.026-.04.023-.041c.01-.013.016-.027.025-.04l.023-.04c.008-.014.015-.029.025-.042l.023-.04.013-.02.012-.02.024-.041.025-.041.035-.06.012-.021c.009-.013.015-.027.024-.041l.037-.06.011-.021.023-.04.026-.041.023-.04c.01-.014.016-.028.025-.041l.012-.02.013-.02.023-.042.024-.04.024-.04.012-.02.014-.02c.007-.015.014-.028.023-.042l.024-.04.024-.041.023-.04.012-.02.012-.021c.01-.013.017-.028.025-.04l.025-.04.023-.042c.009-.014.015-.027.025-.04l.023-.042.012-.02.013-.02.036-.06.012-.02.023-.042c.009-.014.016-.027.026-.04l.023-.041.024-.041.024-.04.024-.04.024-.04.023-.042.026-.04c.007-.014.015-.028.024-.041l.024-.04.023-.042.025-.04.024-.04.024-.041.025-.04c.008-.014.015-.028.024-.04.007-.015.015-.029.023-.042l.025-.04.011-.02.012-.021.025-.04.024-.04zm19.054-1.867c.43-.315.96-.396 1.438-.269l.023.006.024.005.046.012.048.011.047.01.048.012.047.011c.016.005.032.007.048.011.015.005.032.008.048.012l.046.012.048.01c.016.004.032.007.047.012.016.003.032.006.047.011l.048.011.047.011.047.012.048.01.046.012.049.011.047.011.047.011.047.012.048.01c.015.005.03.008.047.012l.048.011c.015.004.031.007.046.012l.048.011.048.01c.015.005.03.008.047.012l.047.011.047.012.047.01.047.012.049.011c.015.004.031.007.046.012l.048.01.048.012.047.011.047.012.047.01.048.012c.016.003.031.006.047.011l.047.011.047.011c.017.004.033.007.048.012l.047.011.048.01.046.012c.016.005.033.008.049.012l.047.01.024.006.023.006.047.011.048.011.046.011.048.012.048.01.047.012.048.011.046.012.048.01.047.011.047.012c.016.004.032.007.047.012l.049.01c.015.004.031.007.046.012.016.003.033.006.048.011l.048.011.047.01.047.013.047.01.047.012.047.011.048.011c.016.004.032.007.047.012l.048.01c.015.005.031.008.047.012l.048.011.047.012.047.01.048.012.024.005.023.006.047.01.048.012.046.012.048.01.048.012c.015.003.031.007.046.012l.049.01.046.011.048.012c.016.004.031.006.046.011l.048.012.047.01c.016.004.033.007.049.012l.046.011.048.011.048.011.047.012.047.01.024.006.023.006.047.011.047.011c.017.005.033.007.048.012l.047.01.048.012.047.01c.015.005.032.008.048.012l.047.012.047.01.024.006.024.006.047.012.046.01.025.006.023.006.047.01.048.012.048.011.023.006.023.006.049.01c.015.005.03.008.046.012l.048.011.046.011.049.011.046.012.049.011.046.01.048.012.046.011c.016.005.032.007.049.011.015.005.03.008.047.012l.047.01.047.012c.016.004.032.007.047.012l.048.01c.015.005.031.008.047.012l.048.011.047.011c.5.122.963.415 1.29.868.73 1.009.508 2.423-.497 3.158-.691.503-1.57.555-2.29.21l-.046-.019-.044-.018-.044-.019-.045-.019c-.015-.008-.03-.012-.044-.018l-.046-.019-.022-.01-.021-.01c-.015-.006-.031-.01-.045-.017-.014-.008-.03-.013-.045-.02-.015-.006-.03-.012-.044-.02-.015-.006-.03-.01-.045-.017l-.044-.018c-.015-.008-.032-.013-.045-.02-.014-.007-.03-.012-.044-.02-.016-.006-.031-.011-.045-.018-.016-.007-.031-.011-.046-.019l-.021-.008-.023-.01c-.014-.007-.03-.012-.043-.02l-.046-.018c-.015-.007-.03-.011-.044-.018l-.045-.02-.045-.018c-.014-.008-.03-.013-.044-.02l-.044-.017c-.015-.009-.03-.013-.045-.02l-.045-.018c-.014-.008-.03-.013-.044-.02l-.045-.017c-.015-.008-.03-.013-.045-.02-.014-.007-.03-.012-.045-.019l-.044-.02c-.014-.005-.03-.01-.044-.018-.015-.006-.03-.01-.045-.018l-.044-.019-.046-.019c-.013-.007-.029-.012-.044-.019l-.044-.018c-.014-.007-.03-.012-.045-.019-.015-.006-.03-.011-.045-.019l-.022-.01-.022-.008-.045-.02c-.014-.007-.03-.012-.044-.018l-.044-.018c-.015-.008-.03-.013-.045-.02l-.045-.02-.066-.027-.024-.01-.044-.019c-.015-.006-.03-.01-.044-.018l-.045-.019c-.015-.006-.03-.011-.044-.019l-.046-.018-.043-.02-.045-.018-.045-.018-.043-.02c-.016-.006-.031-.012-.045-.019l-.045-.018c-.015-.007-.03-.012-.046-.018-.014-.008-.029-.012-.044-.02l-.044-.02c-.015-.005-.03-.01-.045-.018l-.022-.009-.022-.01c-.015-.006-.03-.01-.044-.018l-.046-.019-.044-.018c-.014-.008-.03-.012-.045-.02l-.044-.018-.045-.019c-.015-.007-.03-.012-.044-.02-.015-.005-.03-.01-.045-.018l-.045-.018-.044-.019c-.015-.006-.03-.012-.044-.02l-.045-.018c-.015-.007-.03-.011-.045-.019-.014-.006-.03-.01-.044-.018-.015-.007-.03-.012-.045-.02l-.044-.018-.045-.018c-.014-.007-.03-.013-.046-.019l-.044-.02c-.014-.006-.029-.011-.044-.019l-.045-.018c-.015-.007-.03-.011-.044-.019l-.044-.018c-.016-.007-.03-.012-.045-.02l-.045-.019c-.014-.006-.03-.01-.044-.018l-.044-.018-.045-.02c-.016-.006-.031-.011-.045-.019-.014-.006-.03-.011-.044-.018l-.046-.019-.044-.02c-.014-.005-.03-.01-.045-.018l-.044-.018-.045-.02c-.014-.005-.03-.011-.044-.018-.015-.007-.03-.011-.045-.019-.014-.007-.03-.012-.045-.019-.014-.006-.03-.011-.043-.018-.016-.006-.032-.012-.045-.02l-.045-.018c-.015-.007-.03-.012-.045-.02-.014-.005-.03-.01-.044-.017l-.045-.02-.045-.018-.044-.02c-.014-.005-.03-.011-.044-.018-.015-.007-.03-.011-.046-.018l-.022-.01-.022-.01-.045-.018-.044-.02c-.014-.006-.03-.01-.044-.017-.016-.007-.03-.012-.045-.02l-.044-.019c-.015-.006-.031-.011-.046-.018l-.043-.019c-.015-.007-.031-.011-.045-.018l-.045-.02-.045-.018c-.014-.007-.03-.012-.043-.02-.016-.005-.03-.01-.045-.018-.016-.006-.032-.012-.045-.019l-.022-.009-.045-.019-.022-.009-.046-.018c-.014-.008-.028-.013-.044-.02-.014-.006-.03-.012-.045-.02-.014-.005-.029-.01-.044-.018l-.022-.009-.022-.01c-.015-.006-.03-.01-.045-.018-.015-.006-.03-.012-.045-.02l-.044-.017c-.264-.118-.503-.304-.686-.557-.552-.764-.383-1.832.375-2.386zm-4.963-7.994c.757-.385 1.683-.085 2.068.67.1.193.151.397.164.6.002.016.005.032.006.049l.005.049.005.048.004.049.005.049.004.048.004.05.005.048.006.049.004.05.005.048.005.048.004.049.004.049.005.048.005.049.005.05.004.048.005.048.005.049.004.049.005.048.005.05.005.048.004.049.005.05.005.048.004.048.004.05.005.047.005.049.005.049.005.049c.001.016.004.032.004.049l.004.048.005.049.005.048.005.05.005.048.004.05c.002.015.005.032.005.048l.004.05.005.048.005.048.005.049.004.049.003.024.002.024.005.05.004.048c.002.016.004.032.004.048.002.016.005.033.006.05l.004.048.005.048.005.05c.001.015.004.032.004.048.002.016.005.033.005.049 0 .017.004.033.004.05l.006.048.004.049.005.048.005.049.004.048.005.049c0 .016.003.033.005.048 0 .017.003.033.004.05l.005.048.005.05.004.048.005.048.005.049c0 .016.003.033.005.05l.004.048.005.049.005.049.004.049.005.048.005.048.004.05.005.048.005.05c0 .015.002.031.005.048 0 .015.002.032.004.048l.005.049.004.049.005.048.005.05.005.048.004.049.005.048c.001.018.004.033.004.05l.003.024.002.024.005.05c0 .015.002.032.004.048l.005.048.005.049.004.05.005.048.005.048.005.049.004.049.005.048.004.05.005.048.005.049c.002.017.004.033.004.048l.005.05.005.048.004.049.005.048.005.049.005.048.004.05.005.048c.002.017.004.033.004.05.002.015.005.032.005.048.002.016.005.033.005.048l.004.05.005.049.005.049c.002.015.004.032.004.048.002.017.005.033.005.049.002.016.005.032.005.05.002.015.005.03.005.048l.002.024.005.048.002.025.004.048c.002.017.005.033.005.048l.005.05.005.049c.001.016.004.032.004.049l.003.024.002.024.005.049.006.048c0 .017.002.033.003.05l.005.048.004.05c.002.016.005.031.005.048l.005.05.004.048.006.048.005.049c0 .016.003.032.004.048l.004.049c.002.016.005.032.005.05l.005.048.004.049.003.024.003.024c0 .017.003.032.004.049l.004.048.005.05c.001.016.005.031.005.048.001.016.005.033.005.05l.004.048c.078.89-.38 1.778-1.224 2.208-1.113.566-2.475.124-3.04-.987-.216-.42-.285-.874-.23-1.309l.005-.048.005-.049.004-.048c.002-.016.002-.032.005-.049l.004-.049.005-.048.005-.049.004-.048c.003-.016.004-.032.005-.048l.005-.048.004-.05.005-.048.005-.048.005-.049.002-.024.002-.024.005-.048.005-.049.004-.05.005-.048.005-.048.004-.048.005-.05c.001-.015.001-.032.005-.048l.004-.048.005-.049.005-.048.005-.048.004-.049c.002-.015.002-.033.005-.048.001-.016.001-.033.005-.049l.004-.049.004-.048.005-.049.005-.048.005-.05c.001-.015.001-.031.005-.048l.004-.048.005-.048.004-.049.004-.048.006-.049.005-.048.001-.024.003-.025c.002-.016.002-.032.005-.049.002-.016.002-.032.005-.048l.004-.05.004-.046c.001-.017.003-.033.006-.049.001-.017.001-.033.004-.049.002-.016.002-.032.005-.048l.003-.049.006-.048.004-.049.005-.048c.001-.017.002-.033.005-.048.002-.017.002-.033.005-.049.002-.016.002-.033.003-.05.004-.016.004-.031.005-.047l.005-.049.005-.049.005-.048c.001-.017.002-.033.005-.049.002-.016.002-.032.005-.048l.003-.05.005-.047.005-.048.005-.049c.001-.016.002-.033.005-.049 0-.015.002-.032.004-.048l.006-.049.003-.048.004-.05.006-.048c.001-.015.002-.032.005-.048l.003-.048c.003-.017.004-.032.005-.049.003-.016.003-.033.005-.049.003-.015.003-.032.005-.048l.004-.048.006-.05c0-.015.002-.03.004-.048l.004-.048.005-.049.005-.049.004-.048.005-.048.005-.049.005-.048.004-.048c.001-.017.002-.033.005-.05l.004-.048.005-.047.005-.049.005-.049.004-.048.005-.049c.001-.017.002-.033.005-.048 0-.018.002-.033.004-.05l.005-.048.004-.048.005-.049.005-.049.004-.048.005-.048.005-.048.005-.05.004-.048c.002-.015.002-.032.005-.048.001-.016.002-.033.005-.049 0-.016.002-.033.004-.049l.005-.048.004-.048.005-.049.005-.048.002-.025.002-.024.005-.049.005-.048.004-.049.005-.048.005-.048.005-.049c.001-.016.001-.032.004-.05.002-.015.002-.03.005-.047l.004-.049.003-.024.002-.024c0-.016.003-.033.005-.049l.002-.024.002-.024c.002-.016.002-.033.005-.049.002-.016.002-.032.005-.048.002-.017.002-.032.005-.048l.004-.048.004-.05.005-.048c.002-.016.002-.033.005-.048.002-.017.002-.033.005-.05l.003-.048.006-.048.004-.049c.003-.016.003-.032.005-.049.002-.016.002-.032.005-.048.001-.016.002-.032.005-.048.001-.017.001-.033.005-.049 0-.017.002-.032.003-.048l.005-.049.005-.048.007-.073.002-.025.006-.048c.001-.016.001-.033.005-.049l.003-.048.004-.048.003-.025.003-.024.004-.049c.05-.503.347-.972.832-1.218zm-20.01-.067c.853 0 1.595.471 1.975 1.167.009.015.018.027.025.042.008.013.018.026.025.04l.025.04.024.042.026.04c.007.014.017.027.025.041.007.015.017.027.024.04.008.015.017.028.026.042l.024.04.025.041.025.041c.007.014.017.027.024.04l.026.041c.008.014.018.027.024.04l.026.041c.006.015.016.028.025.042l.012.02.025.041.012.02.026.04c.007.015.017.027.024.041l.025.041c.007.014.017.028.025.04l.024.042.026.04.012.02.012.021.025.04.025.042c.008.014.018.027.024.04l.026.041c.008.015.018.027.024.041.009.014.018.026.026.041.007.014.017.026.025.04.008.014.017.027.024.041l.024.04.027.042.024.04.025.042.025.04.025.04c.007.014.017.028.025.041l.024.041.025.041.025.04c.008.014.018.027.025.041l.026.041c.007.014.017.027.023.041l.027.04c.006.015.016.027.024.041.008.015.017.027.024.041.008.014.018.027.024.04.01.015.02.027.027.041.008.015.017.027.024.041.008.015.017.027.026.041.007.014.017.026.024.04l.025.041.025.042.025.04c.007.014.016.027.024.04.009.015.018.028.025.042.009.013.018.027.025.041l.026.04c.008.013.017.027.024.041.008.013.018.027.024.04l.027.041.024.041c.008.013.017.027.024.041l.026.04.025.041.025.04c.007.015.017.028.024.041l.025.042.025.04.025.04c.007.015.017.027.024.042l.026.04.024.04c.008.015.018.027.025.042l.026.04c.007.014.017.028.023.042l.027.04c.006.014.016.027.024.041l.024.04c.008.014.018.027.026.042l.025.04c.008.014.017.027.024.042l.026.04.012.02.012.02c.008.015.018.027.025.042l.025.04c.008.014.017.026.024.04.008.014.018.027.026.042l.024.04.025.04.026.042.024.04.026.04c.006.015.016.028.024.042l.025.04c.008.014.018.028.024.04l.026.042.025.041.025.04c.008.015.017.027.024.041.008.014.018.027.026.042l.024.04.025.04.025.042c.008.013.017.026.024.04l.026.04c.007.015.016.027.025.042l.024.04.026.041c.007.014.017.027.024.04l.025.042c.008.014.018.026.024.04l.026.041.025.04.025.042c.008.013.017.026.024.04l.026.041.024.04.025.041.025.042c.008.013.017.026.024.04.008.014.019.027.026.04.007.015.017.028.025.042l.024.04.025.04c.008.015.018.028.025.042l.025.04c.008.014.018.027.024.042l.027.04.024.041.025.04.025.041.025.041c.145.248.23.537.23.845 0 .932-.76 1.687-1.699 1.687-.532 0-1.007-.243-1.318-.624l-.032-.037-.015-.018-.015-.019-.033-.035c-.01-.012-.022-.024-.031-.037-.01-.012-.022-.023-.031-.036l-.033-.036-.03-.037-.016-.018-.016-.018c-.011-.013-.022-.023-.032-.036l-.031-.036c-.011-.013-.021-.024-.03-.037-.012-.013-.023-.023-.033-.036-.01-.013-.022-.024-.032-.036l-.016-.019-.015-.017-.032-.038-.016-.017-.015-.019c-.01-.012-.022-.023-.031-.035l-.032-.037c-.012-.012-.02-.024-.032-.037l-.031-.036-.031-.036-.032-.036-.047-.055-.015-.018-.033-.036-.015-.018L4 14.704l-.032-.036-.032-.036c-.011-.013-.021-.024-.03-.037l-.034-.037-.03-.035-.032-.036-.016-.019-.016-.018-.03-.036-.048-.055-.016-.018c-.01-.012-.022-.024-.031-.036-.012-.012-.02-.025-.032-.036l-.031-.037c-.01-.013-.021-.023-.032-.036-.01-.013-.02-.024-.032-.036l-.031-.036-.032-.038-.032-.036-.03-.036-.032-.036c-.01-.012-.022-.024-.031-.037-.011-.01-.021-.023-.032-.036l-.032-.036-.03-.036-.034-.036c-.009-.013-.02-.025-.03-.037-.01-.012-.022-.024-.031-.036l-.031-.036c-.011-.013-.023-.025-.032-.037-.01-.013-.021-.024-.032-.036-.01-.012-.022-.024-.03-.037-.011-.012-.023-.024-.032-.036-.012-.012-.022-.023-.033-.037l-.03-.035-.032-.037c-.012-.011-.02-.024-.032-.037l-.032-.035-.031-.037-.031-.036c-.01-.013-.022-.025-.032-.036-.01-.013-.021-.024-.03-.037-.012-.013-.024-.023-.033-.037l-.03-.035-.032-.036-.032-.038-.031-.035-.033-.037-.03-.036-.017-.018-.015-.018c-.01-.012-.022-.024-.031-.037l-.033-.036-.015-.018-.015-.018c-.01-.013-.022-.024-.032-.036l-.031-.037-.032-.036-.032-.037-.031-.036c-.01-.012-.02-.024-.032-.035l-.031-.038-.032-.036c-.01-.012-.022-.023-.03-.036-.012-.013-.023-.024-.032-.036l-.032-.037c-.01-.011-.022-.024-.031-.037-.011-.01-.022-.024-.031-.036l-.033-.035-.03-.037-.033-.036-.032-.037c-.009-.013-.02-.024-.03-.037l-.048-.054-.015-.017-.032-.037-.032-.037c-.01-.011-.021-.023-.03-.036l-.049-.054-.015-.018c-.01-.013-.021-.024-.032-.036l-.03-.037-.033-.036c-.01-.013-.02-.023-.032-.036l-.015-.019-.016-.018-.03-.036-.033-.037c-.01-.012-.022-.023-.03-.036l-.032-.035c-.01-.013-.021-.026-.033-.038l-.03-.036c-.011-.012-.022-.023-.032-.036l-.032-.037-.031-.036-.03-.036-.033-.036-.048-.055-.015-.018-.031-.036-.032-.037c-.01-.011-.022-.024-.031-.037-.011-.011-.022-.023-.032-.036l-.032-.035-.031-.037-.032-.037-.031-.036c-.01-.011-.022-.023-.031-.036-.011-.012-.022-.024-.03-.036l-.034-.037-.015-.018-.016-.018c-.01-.013-.021-.023-.03-.036l-.033-.036c-.01-.013-.02-.025-.031-.036C.2 10.32 0 9.816 0 9.264c0-1.233 1.005-2.232 2.246-2.232zm6.278 1.525c.213-.033.422-.02.618.03.017.002.032.006.048.01l.047.01.046.01c.015.005.03.007.046.01.016.005.032.008.047.011l.048.01c.015.004.031.008.046.01l.047.012.047.01.046.01.023.006.024.005.047.01.046.01.047.011.047.01.047.011.047.01c.015.005.03.007.046.01l.048.01c.014.005.03.007.045.011l.024.006.023.005.047.01.047.01.024.006.023.006.07.015.023.005.047.01c.015.005.032.007.046.011l.048.01.047.01c.015.005.031.007.046.01.015.005.032.007.047.012l.046.01.048.01.047.01c.015.005.032.007.046.011l.047.01.047.011.046.01.047.011.047.01.048.01.045.011.047.01.047.01c.016.005.031.007.047.011l.046.01.047.012.047.01.046.01.048.01.023.006.024.005.046.01.047.01c.015.005.031.008.047.011l.046.01.048.01c.015.005.03.007.046.011l.047.01c.016.005.031.007.047.011l.045.01.048.012.047.009.046.011.047.01.047.011.047.01.047.01.023.006.023.005.047.01.07.016.022.005.048.01c.015.005.03.008.048.01l.046.012.047.01.046.01.046.011.047.01.024.005.047.01.024.006.046.01.047.01.046.011.047.01.047.01c.016.005.032.008.047.011.016.004.032.007.047.012l.093.02.047.01.047.01.046.011.047.01.023.006.024.005.047.01.047.01c.015.005.03.007.046.011l.047.01.046.01c.016.005.032.008.047.011l.047.011.047.01.047.01.047.01c.015.005.03.008.046.012l.047.01.047.01.046.01.048.011.046.01.047.011.07.015.024.006.046.01.047.01.047.01c.014.005.03.008.047.012l.047.01.046.01.047.01c.015.005.031.007.046.011l.047.01.047.01c.014.005.031.008.048.011l.046.01c.015.005.031.007.047.01.015.005.03.008.046.012l.047.01.046.01.048.011.046.01.047.01.023.006.024.006c.015.002.03.006.046.01l.023.005.024.005.046.01c.017.005.033.007.048.01l.047.012.047.009.045.01.048.012.047.01.046.01.047.011.047.01.047.01.046.011.047.01c.016.005.031.007.047.011l.046.01.047.01.047.01c.015.005.031.007.047.011.016.004.032.008.047.01l.046.012c.868.2 1.569.909 1.717 1.844.194 1.231-.643 2.386-1.87 2.582-.464.074-.917-.001-1.312-.188l-.043-.02-.045-.018c-.014-.007-.03-.012-.043-.02l-.044-.019-.021-.01-.022-.009-.045-.019-.043-.018-.044-.02-.022-.009-.022-.01c-.014-.006-.029-.011-.043-.019-.014-.006-.03-.012-.045-.02l-.042-.018-.044-.019-.044-.018-.043-.02-.044-.018c-.015-.008-.03-.013-.045-.02l-.042-.019-.044-.02-.045-.018c-.015-.007-.03-.013-.042-.02l-.045-.019c-.015-.006-.03-.011-.044-.019-.014-.006-.03-.011-.044-.018-.014-.007-.03-.012-.043-.02l-.044-.019-.043-.02-.044-.017-.044-.02c-.014-.006-.03-.011-.044-.019-.014-.006-.03-.012-.043-.02-.014-.005-.03-.01-.044-.018-.014-.006-.03-.012-.043-.019l-.044-.018c-.015-.008-.03-.013-.044-.02l-.044-.019c-.015-.007-.03-.012-.043-.019l-.044-.019-.045-.019-.042-.019c-.016-.006-.03-.013-.044-.02l-.045-.018-.043-.02c-.015-.006-.03-.011-.043-.019-.016-.006-.03-.011-.045-.019l-.044-.019-.042-.018-.023-.01-.021-.01-.044-.018-.044-.02c-.015-.006-.03-.011-.044-.018-.014-.007-.03-.012-.044-.02-.014-.006-.03-.012-.043-.019l-.022-.01-.022-.01-.043-.018-.044-.018-.044-.02c-.014-.007-.03-.012-.044-.02-.015-.006-.03-.011-.044-.018l-.043-.019-.044-.02-.044-.018-.043-.019-.044-.02c-.015-.006-.03-.011-.044-.019-.015-.006-.03-.012-.043-.019l-.045-.018-.044-.02-.02-.009-.022-.01-.045-.018-.043-.02c-.015-.006-.03-.011-.044-.019l-.044-.019-.022-.01-.022-.009-.043-.018-.044-.02c-.014-.007-.029-.012-.043-.018-.015-.008-.03-.013-.045-.02l-.044-.019-.043-.019-.044-.02-.043-.018-.044-.019-.044-.02c-.015-.006-.028-.011-.043-.019-.015-.005-.03-.01-.044-.018l-.044-.02c-.015-.006-.03-.012-.043-.019l-.044-.018-.044-.02c-.015-.005-.029-.012-.043-.018-.015-.007-.03-.012-.045-.02-.014-.006-.029-.011-.043-.018l-.043-.02-.046-.019c-.014-.006-.03-.012-.041-.018l-.045-.02-.044-.018-.043-.02-.045-.019-.044-.019-.043-.019-.044-.019-.043-.02c-.014-.006-.03-.01-.044-.018-.014-.006-.029-.012-.044-.02-.015-.006-.03-.011-.043-.019l-.044-.019c-.014-.005-.03-.011-.044-.018l-.043-.019-.044-.02c-.015-.006-.03-.011-.044-.019-.015-.005-.029-.01-.043-.018-.015-.007-.03-.012-.045-.02-.014-.006-.03-.012-.043-.019-.016-.006-.03-.011-.044-.018l-.045-.02-.042-.018-.044-.02-.022-.01-.022-.008-.043-.02-.044-.019-.045-.019c-.014-.006-.03-.012-.042-.019-.015-.006-.03-.012-.045-.02-.013-.005-.029-.01-.043-.018-.015-.007-.03-.012-.043-.02l-.045-.018-.044-.019-.043-.019-.044-.019c-.014-.007-.03-.012-.043-.02-.014-.005-.03-.01-.043-.018-.016-.006-.03-.012-.045-.02l-.044-.019c-.014-.006-.03-.011-.044-.018l-.043-.02-.044-.018c-.014-.007-.03-.012-.043-.019l-.044-.02c-.015-.005-.029-.012-.044-.018l-.044-.02-.022-.01-.022-.008-.043-.02c-.014-.006-.03-.012-.045-.02-.014-.005-.03-.01-.043-.018l-.043-.019c-.014-.006-.03-.012-.044-.02-.015-.005-.03-.011-.043-.018l-.044-.019-.045-.018-.044-.02c-.014-.006-.03-.012-.043-.02-.014-.005-.03-.011-.043-.018-.015-.007-.03-.012-.044-.02-.015-.005-.03-.011-.044-.018-.462-.203-.814-.629-.9-1.165-.132-.838.437-1.624 1.273-1.757zM20.967.11c1.18-.38 2.447.26 2.83 1.432.264.807.04 1.654-.508 2.229l-.031.035c-.01.013-.02.025-.032.037-.01.012-.02.025-.03.035l-.032.037-.032.036-.031.035c-.01.013-.02.026-.031.037l-.03.036-.033.037c-.01.01-.02.024-.032.035l-.03.036-.031.036-.031.037-.033.036-.03.036c-.012.012-.021.025-.031.036l-.032.036-.031.036c-.01.012-.02.025-.032.037l-.031.036-.031.035c-.01.013-.02.025-.031.036-.011.013-.02.026-.031.036-.012.012-.021.026-.032.037l-.032.036-.03.036c-.012.012-.02.025-.031.036-.012.013-.02.025-.032.036-.01.012-.02.025-.032.036l-.03.037-.032.036-.031.036c-.01.012-.02.025-.031.036-.01.011-.02.025-.032.035-.012.013-.02.025-.03.037-.013.011-.022.024-.033.036l-.031.036c-.01.012-.02.025-.031.036l-.03.036c-.013.012-.022.025-.033.037l-.031.035c-.01.013-.02.025-.031.036l-.03.037c-.013.011-.022.025-.033.036l-.032.036-.03.036c-.011.013-.02.025-.031.036l-.033.036-.03.036-.032.037-.03.036c-.012.011-.021.024-.032.036-.01.012-.02.025-.031.035-.012.012-.02.026-.032.037l-.032.036-.031.037-.031.035-.03.036-.048.054-.016.019-.03.036-.032.036-.03.036c-.012.011-.022.025-.033.035l-.031.037c-.011.011-.02.025-.031.036l-.033.037c-.01.011-.019.024-.03.035-.01.012-.02.025-.031.036l-.016.018-.016.019-.03.036c-.012.011-.02.024-.033.036-.01.012-.019.025-.03.036-.012.011-.021.025-.032.036l-.032.036c-.01.012-.02.025-.031.036l-.03.037-.017.018-.016.017-.03.036c-.01.012-.02.025-.032.037l-.015.018-.016.018c-.012.012-.02.024-.03.036l-.033.036c-.01.011-.02.025-.031.036l-.031.036-.031.037-.016.017-.016.018-.03.037-.048.053-.016.019-.03.036c-.012.011-.02.024-.033.036l-.031.036-.03.036-.033.036-.03.036c-.01.012-.022.024-.031.037l-.033.036-.03.036c-.011.01-.02.024-.031.036-.012.011-.02.024-.032.036l-.032.036c-.01.012-.019.025-.03.036l-.016.018-.016.018-.031.035c-.01.013-.02.026-.032.037l-.03.037-.016.018-.015.018-.032.036-.032.037-.031.035-.032.036-.031.036-.015.018-.047.055-.03.036c-.013.011-.023.024-.033.035-.01.013-.02.025-.032.037l-.03.036-.031.037c-.012.01-.021.023-.033.035l-.03.036c-.012.012-.02.025-.032.036l-.015.018-.016.018-.03.037-.032.036-.032.036-.031.036-.031.036c-.011.012-.02.025-.032.036l-.031.037c-.01.01-.02.024-.032.035l-.03.036-.016.019-.015.017-.031.037-.033.036c-.192.213-.441.382-.737.478-.892.287-1.85-.197-2.14-1.084-.164-.503-.077-1.027.191-1.439.01-.013.017-.027.026-.04l.012-.021.012-.02.026-.04c.007-.015.016-.029.024-.042l.025-.041.013-.02.012-.021.025-.04c.01-.015.017-.03.026-.042l.025-.041.025-.042c.008-.013.015-.026.025-.04.007-.014.016-.028.025-.042.009-.012.015-.026.025-.04l.024-.041.027-.041.023-.041.026-.041.025-.041.024-.041.025-.041.026-.041c.008-.014.016-.028.026-.041.007-.014.015-.027.024-.04l.025-.043c.008-.012.015-.026.025-.04.01-.013.017-.028.025-.041l.026-.041.025-.041.024-.041.025-.041.025-.041.025-.041.025-.04.025-.041c.008-.015.016-.028.026-.042.008-.014.015-.028.025-.041l.024-.04c.008-.014.016-.029.025-.042l.025-.041c.009-.013.016-.028.027-.04l.023-.042c.009-.013.016-.028.026-.04.007-.014.015-.028.025-.042l.024-.041.025-.04.026-.041.012-.02.012-.022.026-.04.024-.042c.009-.013.016-.027.026-.04l.024-.042c.01-.013.017-.027.025-.04l.026-.041.025-.041.025-.042c.008-.013.015-.027.025-.04l.025-.042.025-.04.025-.042.025-.04.025-.042.025-.04c.008-.014.015-.028.025-.042l.013-.02.012-.02.025-.041c.009-.014.016-.028.025-.04.009-.015.016-.03.025-.042l.025-.041.025-.041.025-.04.025-.043.025-.04.026-.042.024-.04c.009-.013.016-.028.026-.04.007-.015.015-.028.024-.041.009-.014.016-.029.025-.042.008-.014.016-.028.025-.04l.025-.042.025-.04.026-.042.023-.04.026-.041.013-.021.012-.02.025-.042c.01-.014.017-.027.025-.04l.025-.042c.009-.014.016-.027.026-.04l.024-.042.025-.04c.01-.014.016-.028.026-.041.007-.015.016-.028.024-.041l.026-.041.025-.041c.007-.014.016-.028.025-.041.008-.015.015-.028.025-.041l.024-.041.025-.041c.01-.014.017-.028.026-.042l.024-.04.026-.042c.009-.013.015-.027.025-.04.007-.015.016-.028.025-.041l.012-.02.013-.021.024-.041.026-.041.024-.041.026-.041.025-.041.024-.04.025-.042.026-.041.025-.041.025-.041.025-.041c.008-.014.015-.027.025-.041l.025-.041.026-.041c.007-.014.016-.028.024-.041l.025-.04c.008-.015.016-.028.026-.042.008-.013.015-.028.024-.04.008-.015.016-.029.025-.042.009-.014.017-.028.026-.04.007-.015.016-.029.024-.042l.025-.041.025-.041.025-.041.025-.041.025-.04.026-.042.024-.04.026-.042c.007-.013.015-.027.024-.04l.025-.042.025-.04c.27-.437.69-.784 1.218-.954z" transform="translate(-65.000000, -50.000000) translate(65.763637, 50.592736)"/>
                <g>
                    <path fill="url(#ft12v1h2ja)" d="M15.348 8.035l2.225 5.431c.08.198.31.288.504.197l4.708-2.194c.18-.084.263-.296.187-.481L18.566.23c-.01-.024-.022-.045-.036-.065l-3.182 7.87z" transform="translate(-65.000000, -50.000000) translate(65.763637, 50.592736) translate(82.509873, 22.722724)"/>
                    <path fill="url(#ym23kp7yub)" d="M18.53.164L9.308 22.888l-7.933 3.7-.005.002L12.12.23c.057-.139.192-.23.343-.23h5.76c.125 0 .239.063.307.164" transform="translate(-65.000000, -50.000000) translate(65.763637, 50.592736) translate(82.509873, 22.722724)"/>
                    <path fill="url(#9wzzzjy05c)" d="M1.375 26.587l-.005.002L.028 29.88c-.1.245.08.512.343.512h6.8c.054 0 .108-.013.156-.035l14.514-6.802-2.176-5.495-18.29 8.527z" transform="translate(-65.000000, -50.000000) translate(65.763637, 50.592736) translate(82.509873, 22.722724)"/>
                    <path fill="url(#2zd89rto5d)" d="M19.666 18.06l4.851 12.254c.086.187.19.182.493.182l5.375-.065c.267-.004.443-.279.335-.522l-5.693-13.94c-.034-.074-.088-.13-.153-.166-.056-.032-.12-.05-.184-.05-.04 0-.08.007-.12.02l-4.904 2.287z" transform="translate(-65.000000, -50.000000) translate(65.763637, 50.592736) translate(82.509873, 22.722724)"/>
                </g>
            </g>
        </g>
    </g>
</svg>
