<svg width="53" height="56" viewBox="0 0 53 56" fill="none" xmlns="http://www.w3.org/2000/svg">
<path d="M46.1177 56H10.7059C10.4875 56 10.278 55.9078 10.1236 55.7437C9.96912 55.5796 9.88235 55.3571 9.88235 55.125V0.875C9.88235 0.642936 9.96912 0.420376 10.1236 0.256282C10.278 0.0921872 10.4875 0 10.7059 0L37.604 0C37.8224 4.95577e-05 38.0318 0.0922693 38.1862 0.256375L46.6999 9.30212C46.8543 9.46618 46.9411 9.6887 46.9412 9.92075V55.125C46.9412 55.3571 46.8544 55.5796 46.7 55.7437C46.5455 55.9078 46.3361 56 46.1177 56Z" fill="#809AF9"/>
<path d="M5.76471 28.8274L9.05883 27.2812L11.3581 31.0306H5.76471V28.8274Z" fill="url(#paint0_linear_17258_1301)"/>
<path d="M45.2941 56H9.88235C9.66394 56 9.45447 55.9078 9.30003 55.7437C9.14559 55.5796 9.05882 55.3571 9.05882 55.125V0.875C9.05882 0.642936 9.14559 0.420376 9.30003 0.256282C9.45447 0.0921872 9.66394 0 9.88235 0L37.1214 0L46.1177 9.5585V55.125C46.1177 55.3571 46.0309 55.5796 45.8764 55.7437C45.722 55.9078 45.5125 56 45.2941 56Z" fill="white"/>
<path d="M37.1214 0V8.6835C37.1214 8.91557 37.2082 9.13813 37.3626 9.30222C37.5171 9.46631 37.7265 9.5585 37.9449 9.5585H46.1177L42.0824 4.396L37.1214 0Z" fill="#809AF9"/>
<path d="M37.9005 45.9377H7.22236C7.03091 45.9379 6.84131 45.8979 6.66441 45.8201C6.48751 45.7423 6.32678 45.6282 6.1914 45.4844C6.05603 45.3406 5.94866 45.1698 5.87545 44.9818C5.80223 44.7939 5.7646 44.5924 5.76471 44.389V30.375H37.9005C38.287 30.3752 38.6576 30.5385 38.9309 30.8289C39.2043 31.1193 39.3579 31.5131 39.3581 31.9238V44.389C39.3581 44.7998 39.2046 45.1937 38.9312 45.4841C38.6578 45.7746 38.2871 45.9377 37.9005 45.9377Z" fill="#FF4A4A"/>
<path d="M9.05883 27.2813H7.22071C7.02954 27.2811 6.84023 27.321 6.66359 27.3987C6.48694 27.4763 6.32642 27.5902 6.19121 27.7338C6.056 27.8774 5.94874 28.0479 5.87556 28.2355C5.80238 28.4231 5.76471 28.6243 5.76471 28.8274C5.7646 29.0306 5.80219 29.2318 5.87532 29.4195C5.94845 29.6073 6.0557 29.7778 6.19092 29.9215C6.32614 30.0652 6.4867 30.1791 6.66339 30.2568C6.84009 30.3346 7.02947 30.3745 7.22071 30.3744H9.05883V27.2813Z" fill="#D70A0A"/>
<path d="M12.353 41.1527V35.1555C12.3528 35.0556 12.3713 34.9568 12.4071 34.8645C12.443 34.7723 12.4956 34.6885 12.562 34.6178C12.6284 34.5472 12.7073 34.4912 12.794 34.453C12.8808 34.4148 12.9738 34.3951 13.0678 34.3951C14.1606 34.3505 15.2551 34.3882 16.343 34.508C16.7831 34.6437 17.1657 34.9367 17.4261 35.3375C17.6864 35.7383 17.8085 36.2223 17.7718 36.7077C17.8043 37.2223 17.6633 37.7323 17.3742 38.1466C17.0851 38.5608 16.6667 38.8523 16.1939 38.9687C15.4696 39.0608 14.7399 39.0968 14.0107 39.0763C13.9498 39.0763 13.8913 39.1021 13.8482 39.1478C13.8052 39.1936 13.781 39.2557 13.781 39.3205V41.1527C13.781 41.2523 13.7625 41.351 13.7266 41.443C13.6907 41.5351 13.6381 41.6187 13.5718 41.6891C13.5055 41.7596 13.4268 41.8155 13.3402 41.8536C13.2536 41.8917 13.1607 41.9113 13.067 41.9113C12.8776 41.9113 12.696 41.8314 12.5621 41.6891C12.4282 41.5469 12.353 41.3539 12.353 41.1527ZM13.781 35.9115V37.5556C13.781 37.6203 13.8052 37.6824 13.8482 37.7282C13.8913 37.774 13.9498 37.7997 14.0107 37.7997C14.5734 37.8409 15.1388 37.8012 15.6915 37.6816C15.887 37.599 16.0517 37.4508 16.1606 37.2596C16.2695 37.0684 16.3167 36.8446 16.2948 36.6223C16.273 36.4 16.1834 36.1914 16.0398 36.0282C15.8961 35.8649 15.7061 35.7561 15.4988 35.7181C15.004 35.6728 14.5073 35.6555 14.0107 35.6665C13.9805 35.6666 13.9507 35.673 13.9229 35.6854C13.895 35.6977 13.8697 35.7158 13.8485 35.7386C13.8272 35.7613 13.8104 35.7883 13.7989 35.818C13.7875 35.8476 13.7817 35.8794 13.7818 35.9115H13.781Z" fill="white"/>
<path d="M18.9412 35.1579C18.9411 35.0581 18.9595 34.9592 18.9954 34.867C19.0312 34.7747 19.0839 34.6909 19.1503 34.6203C19.2167 34.5496 19.2955 34.4936 19.3823 34.4554C19.4691 34.4172 19.5621 34.3975 19.656 34.3975C20.7383 34.3288 21.8243 34.3769 22.8974 34.541C23.3128 34.6837 23.6888 34.9325 23.9926 35.2655C24.2964 35.5985 24.5187 36.0056 24.64 36.4511C24.8071 37.026 24.8853 37.6259 24.8714 38.2274C24.8822 38.7696 24.8088 39.31 24.654 39.8269C24.5405 40.2813 24.3188 40.6971 24.0103 41.0343C23.7018 41.3714 23.3169 41.6185 22.8925 41.7519C21.8208 41.913 20.7372 41.9664 19.656 41.9111C19.4669 41.9111 19.2854 41.8315 19.1514 41.6896C19.0174 41.5477 18.9418 41.3552 18.9412 41.1542V35.1579ZM20.3692 35.9139V40.4035C20.3692 40.4682 20.3934 40.5303 20.4365 40.5761C20.4796 40.6219 20.538 40.6476 20.599 40.6476C21.1667 40.6809 21.7361 40.6569 22.2995 40.5759C22.5372 40.5228 22.7545 40.3956 22.9238 40.2106C23.0931 40.0256 23.2066 39.7911 23.2499 39.5372C23.3592 39.088 23.408 38.6246 23.3948 38.1609C23.4101 37.7097 23.3612 37.2587 23.2499 36.823C23.1875 36.5527 23.0534 36.3072 22.8637 36.1153C22.674 35.9235 22.4365 35.7935 22.1793 35.7406C21.6533 35.6791 21.1239 35.6551 20.5948 35.6689C20.5343 35.6698 20.4766 35.696 20.4342 35.7419C20.3918 35.7878 20.369 35.8496 20.3692 35.9139Z" fill="white"/>
<path d="M26.0911 41.1561V35.1588C26.0911 34.9571 26.1665 34.7637 26.3007 34.6211C26.4349 34.4785 26.6169 34.3984 26.8067 34.3984H30.3421C30.5009 34.3984 30.6532 34.4655 30.7655 34.5848C30.8778 34.7041 30.9408 34.8659 30.9408 35.0346C30.9408 35.1181 30.9253 35.2007 30.8952 35.2779C30.8651 35.355 30.821 35.4251 30.7654 35.4841C30.7098 35.5431 30.6438 35.5898 30.5712 35.6217C30.4985 35.6536 30.4207 35.6699 30.3421 35.6698H27.7529C27.7227 35.6698 27.6928 35.6762 27.6648 35.6885C27.6369 35.7008 27.6115 35.7189 27.5902 35.7416C27.5688 35.7644 27.5519 35.7914 27.5404 35.8211C27.5289 35.8508 27.5231 35.8827 27.5232 35.9148V37.2046C27.5231 37.2367 27.5289 37.2685 27.5404 37.2983C27.5519 37.328 27.5688 37.355 27.5902 37.3778C27.6115 37.4005 27.6369 37.4186 27.6648 37.4309C27.6928 37.4432 27.7227 37.4496 27.7529 37.4496H29.8777C30.0363 37.4496 30.1885 37.5165 30.3007 37.6356C30.413 37.7547 30.4761 37.9163 30.4764 38.0848C30.4761 38.2535 30.413 38.4151 30.3008 38.5344C30.1885 38.6536 30.0364 38.7207 29.8777 38.7209H27.7529C27.7228 38.7209 27.6929 38.7273 27.665 38.7395C27.6371 38.7518 27.6118 38.7698 27.5905 38.7924C27.5691 38.8151 27.5522 38.842 27.5407 38.8716C27.5291 38.9013 27.5232 38.933 27.5232 38.9651V41.1526C27.523 41.3538 27.4476 41.5468 27.3135 41.689C27.1795 41.8313 26.9978 41.9112 26.8084 41.9112C26.7146 41.9116 26.6217 41.8925 26.5349 41.8548C26.4481 41.8171 26.3691 41.7616 26.3025 41.6915C26.2359 41.6213 26.183 41.538 26.1467 41.4461C26.1104 41.3542 26.0915 41.2557 26.0911 41.1561Z" fill="white"/>
<rect x="15.3726" y="9.88281" width="17.5686" height="2.19608" rx="0.5" fill="#EDF0FE"/>
<rect x="15.3726" y="15.373" width="24.1569" height="2.19608" rx="0.5" fill="#EDF0FE"/>
<rect x="15.3726" y="18.666" width="24.1569" height="2.19608" rx="0.5" fill="#EDF0FE"/>
<rect x="15.3726" y="24.1562" width="24.1569" height="2.19608" rx="0.5" fill="#EDF0FE"/>
<defs>
<linearGradient id="paint0_linear_17258_1301" x1="8.56142" y1="26.6425" x2="8.56142" y2="104.736" gradientUnits="userSpaceOnUse">
<stop stop-color="#FF5252"/>
<stop offset="1" stop-color="#D50000"/>
</linearGradient>
</defs>
</svg>
